HIERARCHY
ROOT Hips
{
	OFFSET 0.000000 0.000000 0.000000 
	CHANNELS 6 Xposition Yposition Zposition Zrotation Yrotation Xrotation
	JOINT LeftUpLeg
	{
		OFFSET 1.363060 -1.794630 0.839290 
		CHANNELS 3 Zrotation Yrotation Xrotation
		JOINT LeftLeg
		{
			OFFSET 2.448110 -6.726130 0.000000 
			CHANNELS 3 Zrotation Yrotation Xrotation
			JOINT LeftFoot
			{
				OFFSET 2.562200 -7.039590 0.000000 
				CHANNELS 3 Zrotation Yrotation Xrotation
				JOINT LeftToeBase
				{
					OFFSET 0.157640 -0.433110 2.322550 
					CHANNELS 3 Zrotation Yrotation Xrotation
					End Site
					{
						OFFSET 0.000000 0.000000 0.000000 
					}
				}
			}
		}
	}
	JOINT RightUpLeg
	{
		OFFSET -1.305520 -1.794630 0.839290 
		CHANNELS 3 Zrotation Yrotation Xrotation
		JOINT RightLeg
		{
			OFFSET -2.542530 -6.985550 0.000000 
			CHANNELS 3 Zrotation Yrotation Xrotation
			JOINT RightFoot
			{
				OFFSET -2.568260 -7.056230 0.000000 
				CHANNELS 3 Zrotation Yrotation Xrotation
				JOINT RightToeBase
				{
					OFFSET -0.164730 -0.452590 2.363150 
					CHANNELS 3 Zrotation Yrotation Xrotation
					End Site
					{
						OFFSET 0.000000 0.000000 0.000000 
					}
				}
			}
		}
	}
	JOINT Spine
	{
		OFFSET 0.028270 2.035590 -0.193380 
		CHANNELS 3 Zrotation Yrotation Xrotation
		JOINT Spine1
		{
			OFFSET 0.056720 2.048850 -0.042750 
			CHANNELS 3 Zrotation Yrotation Xrotation
			JOINT Neck1
			{
				OFFSET -0.054170 1.746240 0.172020 
				CHANNELS 3 Zrotation Yrotation Xrotation
				JOINT Head
				{
					OFFSET 0.104070 1.761360 -0.123970 
					CHANNELS 3 Zrotation Yrotation Xrotation
					End Site
					{
						OFFSET 0.000000 0.000000 0.000000 
					}
				}
			}
			JOINT LeftArm
			{
				OFFSET 3.362410 1.200890 -0.311210 
				CHANNELS 3 Zrotation Yrotation Xrotation
				JOINT LeftForeArm
				{
					OFFSET 4.983000 -0.000000 -0.000000 
					CHANNELS 3 Zrotation Yrotation Xrotation
					JOINT LeftHand
					{
						OFFSET 3.483560 -0.000000 -0.000000 
						CHANNELS 3 Zrotation Yrotation Xrotation
						JOINT LeftHandIndex1
						{
							OFFSET 0.715260 -0.000000 -0.000000 
							CHANNELS 3 Zrotation Yrotation Xrotation
							End Site
							{
								OFFSET 0.000000 0.000000 0.000000 
							}
						}
					}
				}
			}
			JOINT RightArm
			{
				OFFSET -3.136600 1.374050 -0.404650 
				CHANNELS 3 Zrotation Yrotation Xrotation
				JOINT RightForeArm
				{
					OFFSET -5.241900 -0.000000 -0.000000 
					CHANNELS 3 Zrotation Yrotation Xrotation
					JOINT RightHand
					{
						OFFSET -3.444170 -0.000000 -0.000000 
						CHANNELS 3 Zrotation Yrotation Xrotation
						JOINT RightHandIndex1
						{
							OFFSET -0.622530 -0.000000 -0.000000 
							CHANNELS 3 Zrotation Yrotation Xrotation
							End Site
							{
								OFFSET 0.000000 0.000000 0.000000 
							}
						}
					}
				}
			}
		}
	}
}
MOTION
Frames: 16
Frame Time: 0.041667
9.951229 17.810236 34.740737 179.645848 -2.556740 -153.466244 -23.538491 -21.158412 -23.326727 -1.126817 6.791895 14.519493 0.552311 -2.715662 -17.545215 3.502600 -11.467400 -33.872800 29.866830 21.222037 -21.448910 1.376228 -6.325118 13.529407 -1.205235 -4.279869 -24.376167 -1.499300 7.734300 -21.910100 1.608361 -1.827730 -4.785824 -1.018196 -1.855407 14.236194 1.560189 -5.671621 21.566718 -2.803000 -2.015000 5.593900 -102.491312 -2.568127 24.080482 12.662368 -14.958288 -2.240413 -1.449056 0.931968 5.775750 -7.125000 0.000000 0.000000 97.261593 -2.329684 6.615982 -10.681134 20.359262 -2.551605 0.672219 3.928254 4.209848 7.125000 0.000000 0.000000 
9.952327 17.809468 34.741176 179.667258 -2.501840 -153.316698 -23.426149 -21.169828 -23.528496 -1.131534 6.821031 14.550097 0.563626 -2.671604 -17.642900 3.529100 -11.505900 -34.005600 29.812818 21.354817 -21.652742 1.378029 -6.370592 13.582748 -1.209836 -4.250769 -24.445281 -1.447900 7.606600 -21.525300 1.680597 -1.865525 -4.787279 -0.707582 -1.880045 14.173315 1.560677 -5.600712 21.543945 -2.785400 -1.986700 5.608900 -102.646518 -2.227358 24.062648 12.668498 -14.982739 -2.244538 -1.473305 0.903720 5.739912 -7.125000 0.000000 0.000000 96.875515 -2.670738 6.629811 -10.693830 20.371717 -2.555183 0.668072 3.926353 4.071696 7.125000 0.000000 0.000000 
9.951778 17.809138 34.744249 179.627846 -2.493568 -153.133012 -23.355303 -21.449823 -23.682613 -1.144094 6.850538 14.562708 0.599508 -2.479948 -17.846688 3.510400 -11.478800 -33.912100 29.675928 21.375264 -21.928596 1.378840 -6.425436 13.653965 -1.208180 -4.262093 -24.481401 -1.491800 7.715900 -21.854600 1.657804 -1.884990 -4.744790 -0.841092 -1.873543 14.279611 1.589809 -5.614304 21.523755 -2.759100 -1.995700 5.583700 -102.424861 -2.021598 24.225235 12.685099 -15.035949 -2.255069 -1.484575 0.890013 5.523446 -7.125000 0.000000 0.000000 96.839202 -2.926378 6.722736 -10.723857 20.460936 -2.576656 0.691987 3.957737 3.933882 7.125000 0.000000 0.000000 
9.953205 17.808041 34.747432 179.545106 -2.442975 -152.897940 -23.305251 -21.866597 -23.845201 -1.167287 6.883208 14.563224 0.666850 -2.039739 -18.109995 3.740200 -11.806400 -35.050300 29.462413 21.439952 -22.247625 1.382036 -6.465203 13.671032 -1.207708 -4.215042 -24.511221 -1.480600 7.688100 -21.770700 1.681083 -1.916816 -4.705769 -0.717184 -1.894563 14.428704 1.631030 -5.604478 21.511180 -2.729600 -1.992600 5.571700 -102.423487 -1.875079 24.070529 12.639351 -14.986675 -2.239579 -1.489011 0.930385 5.946873 -7.125000 0.000000 0.000000 96.600888 -3.138820 6.696712 -10.724567 20.480197 -2.580973 0.720403 4.005876 3.825058 7.125000 0.000000 0.000000 
9.958253 17.806943 34.749407 179.510639 -2.361995 -152.645551 -23.180258 -22.190765 -24.036449 -1.184490 6.917472 14.571962 0.712722 -1.755231 -18.332556 3.683800 -11.727300 -34.774000 29.289078 21.559726 -22.578990 1.385335 -6.515979 13.701217 -1.205988 -4.146306 -24.528315 -1.475800 7.676300 -21.735100 1.651934 -1.884488 -4.551326 -0.798047 -1.888426 15.193330 1.712610 -5.630371 21.526285 -2.680800 -2.000300 5.514300 -102.187373 -2.083636 23.788652 12.669274 -15.064630 -2.251616 -1.452411 0.905543 5.916973 -7.125000 0.000000 0.000000 96.600401 -2.744408 6.176036 -10.554320 20.237192 -2.510480 0.750829 4.006011 4.175209 7.125000 0.000000 0.000000 
9.962643 17.807273 34.752919 179.589415 -2.296874 -152.386540 -22.905730 -22.357481 -24.317280 -1.194414 6.964314 14.615019 0.737176 -1.623855 -18.503478 3.478900 -11.432600 -33.753200 29.232149 21.763955 -22.957796 1.388314 -6.602696 13.803553 -1.201545 -4.115786 -24.547239 -1.481200 7.689600 -21.775200 1.640691 -1.845941 -4.430235 -0.854202 -1.872329 15.771176 1.765718 -5.617242 21.515501 -2.647900 -1.990400 5.499500 -101.977208 -2.204526 23.590549 12.664533 -15.077433 -2.246116 -1.449145 0.881927 6.031921 -7.125000 0.000000 0.000000 96.610186 -2.466318 5.667183 -10.418758 20.040148 -2.452278 0.766219 4.003948 4.574047 7.125000 0.000000 0.000000 
9.964728 17.808809 34.756980 179.705006 -2.186622 -152.248945 -22.670886 -22.387117 -24.570337 -1.199873 7.020418 14.708677 0.764593 -1.440630 -18.626557 3.622100 -11.639800 -34.469500 29.234442 22.093582 -23.215828 1.392811 -6.688687 13.931263 -1.198540 -4.213037 -24.620753 -1.494700 7.723100 -21.876200 1.679786 -1.858819 -4.587142 -0.690936 -1.852669 14.755696 1.682613 -5.589913 21.454904 -2.697000 -1.985300 5.574600 -101.990422 -1.324667 23.569005 12.637930 -15.061110 -2.243471 -1.466480 0.882855 6.126098 -7.125000 0.000000 0.000000 96.404977 -3.393064 5.692232 -10.450986 20.104405 -2.468225 0.755982 4.012627 4.491123 7.125000 0.000000 0.000000 
9.968131 17.805297 34.761260 179.627978 -2.199439 -151.983029 -22.589414 -22.620082 -24.883620 -1.206560 7.081026 14.774505 0.783167 -1.261148 -18.675917 3.770100 -11.848100 -35.196600 28.973749 22.376053 -23.614954 1.401166 -6.797204 14.085148 -1.188899 -4.475500 -24.736995 -1.584500 7.940800 -22.534500 1.700822 -1.891305 -4.548796 -0.541462 -1.878006 14.886396 1.728336 -5.584563 21.432429 -2.665800 -1.984400 5.573900 -101.865612 -1.195691 23.850418 12.619640 -15.053980 -2.240057 -1.489653 0.888065 5.911157 -7.125000 0.000000 0.000000 96.183458 -3.547708 5.606508 -10.459817 20.129355 -2.474650 0.754022 4.044116 4.181462 7.125000 0.000000 0.000000 
9.970984 17.805846 34.766967 179.523176 -2.146614 -151.734713 -22.562522 -22.866772 -25.210688 -1.208516 7.164351 14.899789 0.802838 -1.110485 -18.774667 3.812900 -11.907200 -35.404600 28.740109 22.261116 -23.974442 1.403038 -6.814881 14.054255 -1.178497 -4.382037 -24.645084 -1.715500 8.246600 -23.465500 1.652145 -1.858536 -4.553111 -0.628693 -1.846086 14.724218 1.762036 -5.644331 21.410463 -2.649800 -2.014400 5.525700 -101.541051 -0.733306 24.351059 12.714252 -15.249782 -2.291654 -1.499356 0.862357 5.410399 -7.125000 0.000000 0.000000 96.238723 -3.872172 5.315055 -10.450574 20.155423 -2.483553 0.790196 4.085243 3.929405 7.125000 0.000000 0.000000 
9.973728 17.806285 34.771905 179.470408 -2.078069 -151.445740 -22.458392 -22.894927 -25.886095 -1.171940 7.425748 15.460964 0.797675 -1.257731 -18.961458 4.016200 -12.181900 -36.378500 28.438800 22.661490 -24.438690 1.410627 -6.959003 14.277226 -1.183162 -4.626665 -24.904213 -1.773500 8.377400 -23.866300 1.643976 -1.842975 -4.543425 -0.571644 -1.836406 14.687955 1.779084 -5.654226 21.385727 -2.639800 -2.020300 5.518700 -101.374625 -0.315995 24.647469 12.811088 -15.445343 -2.344101 -1.485379 0.816481 4.921880 -7.125000 0.000000 0.000000 96.135960 -4.175285 5.196844 -10.440075 20.151582 -2.480632 0.777699 4.016350 3.823254 7.125000 0.000000 0.000000 
9.975264 17.803980 34.775198 179.439607 -1.948456 -151.170420 -22.366824 -22.852282 -26.503928 -1.141711 7.641120 15.917043 0.792015 -1.398764 -19.125893 4.111600 -12.307500 -36.828600 28.233642 22.803352 -24.786750 1.417155 -6.992757 14.263834 -1.183417 -4.550964 -24.935697 -1.751100 8.327100 -23.712100 1.637605 -1.810036 -4.543537 -0.524360 -1.814538 14.608754 1.799955 -5.655881 21.368629 -2.614500 -2.026200 5.508500 -101.245960 0.130196 24.804923 12.835683 -15.524400 -2.365726 -1.462926 0.788558 4.644828 -7.125000 0.000000 0.000000 95.988328 -4.702968 5.415042 -10.515316 20.264863 -2.507390 0.659489 3.768509 3.660551 7.125000 0.000000 0.000000 
9.976581 17.801785 34.777722 179.466243 -1.863204 -150.905534 -22.194840 -23.220998 -26.325528 -1.213472 7.403408 15.259175 0.849093 -0.836991 -19.139612 3.954300 -12.099300 -36.084200 28.073513 23.032820 -25.121569 1.426752 -7.038377 14.269746 -1.182775 -4.548899 -25.001189 -1.722700 8.262900 -23.515300 1.626533 -1.801942 -4.539785 -0.598031 -1.792796 14.511247 1.837887 -5.660783 21.343289 -2.573300 -2.035500 5.489100 -101.075625 0.498786 25.018774 12.848667 -15.578450 -2.380613 -1.453742 0.779190 4.272629 -7.125000 0.000000 0.000000 95.900598 -5.173983 5.719665 -10.600813 20.442304 -2.542822 0.630909 3.933553 3.427992 7.125000 0.000000 0.000000 
9.979983 17.801017 34.781234 179.568833 -1.865921 -150.702818 -21.945847 -23.155689 -26.706425 -1.202837 7.502686 15.451310 0.841980 -0.913118 -19.190603 4.016300 -12.182100 -36.379100 28.060117 23.278570 -25.347954 1.443616 -7.060186 14.234831 -1.177803 -4.700640 -25.085964 -1.754700 8.335200 -23.736800 1.626243 -1.818840 -4.510283 -0.698938 -1.778738 14.489278 1.869886 -5.661755 21.303218 -2.552300 -2.037500 5.486200 -100.900862 0.700349 25.042242 12.832753 -15.573395 -2.376312 -1.463057 0.792121 4.081118 -7.125000 0.000000 0.000000 95.899190 -5.464672 5.803680 -10.654117 20.558711 -2.570413 0.632694 3.989084 3.196234 7.125000 0.000000 0.000000 
9.982178 17.800359 34.783648 179.653021 -1.850293 -150.556250 -21.758595 -23.106152 -26.985981 -1.197476 7.564299 15.560060 0.834904 -0.932529 -19.162803 4.205400 -12.428800 -37.266400 28.071416 23.445934 -25.512517 1.451315 -7.081007 14.225461 -1.173315 -4.727534 -25.094400 -1.750200 8.325200 -23.706400 1.625542 -1.797766 -4.477088 -0.739494 -1.753611 14.464098 1.892884 -5.676741 21.274291 -2.549300 -2.042700 5.485500 -100.814820 0.926831 24.729398 12.770580 -15.492007 -2.348226 -1.473930 0.814795 4.434458 -7.125000 0.000000 0.000000 95.939427 -5.703397 5.442906 -10.630486 20.540221 -2.563899 0.648481 3.982181 3.215325 7.125000 0.000000 0.000000 
9.981300 17.800688 34.786392 179.651528 -1.819062 -150.327289 -21.635747 -23.178526 -27.308128 -1.194090 7.626596 15.651340 0.829750 -1.005119 -19.232552 4.044800 -12.219800 -36.514100 27.912473 23.604213 -25.821712 1.456939 -7.132113 14.265115 -1.167347 -4.756322 -25.110770 -1.733100 8.286600 -23.587900 1.626304 -1.777023 -4.456115 -0.719178 -1.734450 14.438699 1.936719 -5.688836 21.242846 -2.526000 -2.049300 5.461400 -100.766197 1.252047 24.581878 12.754124 -15.492620 -2.344779 -1.474499 0.817434 4.688100 -7.125000 0.000000 0.000000 95.843270 -5.952404 5.298774 -10.619490 20.534260 -2.555436 0.606042 4.009018 3.198230 7.125000 0.000000 0.000000 
9.980203 17.800359 34.790123 179.667856 -1.751599 -149.959867 -21.441694 -23.233760 -27.800039 -1.193214 7.706097 15.753146 0.825421 -1.077034 -19.331426 3.789800 -11.875400 -35.292500 27.680252 23.820217 -26.353950 1.463294 -7.226155 14.356773 -1.161072 -4.750268 -25.142648 -1.751200 8.327400 -23.712900 1.610165 -1.704419 -4.451769 -0.721111 -1.693037 14.394552 1.975932 -5.718511 21.199416 -2.517600 -2.061400 5.439800 -100.572958 1.557680 24.827722 12.755580 -15.523522 -2.350497 -1.488388 0.797139 4.584970 -7.125000 0.000000 0.000000 95.800986 -6.379890 5.583100 -10.766923 20.778670 -2.617227 0.538611 3.997720 2.734809 7.125000 0.000000 0.000000 
